<?xml version="1.0" encoding="UTF-8"?>
<svg width="24px" height="24px" viewBox="0 0 24 24" version="1.1" xmlns="http://www.w3.org/2000/svg" xmlns:xlink="http://www.w3.org/1999/xlink">
    <!-- Generator: Sketch 58 (84663) - https://sketch.com -->
    <title>icon/ic_chat</title>
    <desc>Created with Sketch.</desc>
    <g id="icon/ic_chat" stroke="none" stroke-width="1" fill="none" fill-rule="evenodd">
        <path d="M20.949468,10.2057292 L20.4201981,10.2057292 C20.3934673,5.671875 16.635116,2 12,2 C7.36754574,2 3.60919449,5.671875 3.58246368,10.2057292 L3.05319374,10.2057292 C2.47313526,10.2057292 2,10.6640625 2,11.2317708 L2,15.8463542 C2,16.4140625 2.47046218,16.8723958 3.05319374,16.8723958 L4.4458687,16.8723958 C5.65944727,19.2916667 8.04918128,21.0416667 10.8826467,21.4114583 C11.2675703,21.7682292 11.8583211,22 12.5265912,22 C13.6893812,22 14.6329787,21.3125 14.6329787,20.4609375 C14.6329787,19.609375 13.6893812,18.921875 12.5265912,18.921875 C11.6845708,18.921875 10.9628391,19.2864583 10.6260309,19.8072917 C8.78160535,19.4375 7.1670647,18.3307292 6.17535182,16.7447917 C6.50948689,16.5729167 6.73669873,16.2369792 6.73669873,15.84375 L6.73669873,11.2317708 C6.73669873,10.6640625 6.26623656,10.2057292 5.683505,10.2057292 L5.15958121,10.2057292 C5.18631201,6.52604167 8.24431616,3.54166667 12,3.54166667 C15.7556725,3.54166667 18.8136767,6.52604167 18.8404075,10.2057292 L18.3164837,10.2057292 C17.7364252,10.2057292 17.2632899,10.6640625 17.2632899,11.2317708 L17.2632899,15.8463542 C17.2632899,16.4140625 17.7337521,16.8723958 18.3164837,16.8723958 L20.9467949,16.8723958 C21.5295265,16.8723958 22,16.4140625 22,15.8463542 L22,11.2317708 C22.0026617,10.6666667 21.5321996,10.2057292 20.949468,10.2057292 Z" id="形状" fill="#000000" fill-rule="nonzero" transform="translate(12.000000, 12.000000) scale(-1, 1) translate(-12.000000, -12.000000) "></path>
    </g>
</svg>