<?xml version="1.0" encoding="UTF-8"?>
<svg width="40px" height="40px" viewBox="0 0 40 40" version="1.1" xmlns="http://www.w3.org/2000/svg" xmlns:xlink="http://www.w3.org/1999/xlink">
    <!-- Generator: Sketch 54.1 (76490) - https://sketchapp.com -->
    <title>换货</title>
    <desc>Created with Sketch.</desc>
    <g id="换货" stroke="none" stroke-width="1" fill="none" fill-rule="evenodd">
        <rect id="矩形" stroke="#000000" stroke-width="2" x="6" y="18" width="28" height="18"></rect>
        <polyline id="路径-8" stroke="#000000" stroke-width="2" points="6.68847656 17.6994629 11.4307916 13 29.0485488 13 33.3244629 17.6660156"></polyline>
        <path d="M15,18 L25,18 L25,4 L15,4 L15,18 Z" id="矩形" stroke="#000000" stroke-width="2" fill="#FFFFFF"></path>
        <polyline id="路径-9" stroke="#000000" stroke-width="2" transform="translate(6.738159, 13.959351) scale(-1, 1) translate(-6.738159, -13.959351) " points="2.79321289 13.0251465 5.79052734 11 10.6831055 14.1223145 7.08496094 16.9187012"></polyline>
        <polyline id="路径-9" stroke="#000000" stroke-width="2" points="29.2851563 12.967041 33.0847168 10.9855957 37.3703613 14.0546875 33.6069336 16.9309082"></polyline>
        <g id="循环" transform="translate(16.000000, 23.000000)" fill="#000000" fill-rule="nonzero">
            <rect id="矩形" opacity="0" x="0" y="0" width="8" height="8"></rect>
            <path d="M4.04516602,0.110351563 L2.08776855,0.0795898438 L3.99999999,2.90908787 L3.98535156,2.05651855 C5.2228521,2.05651855 6.0333252,2.79683034 6.0333252,3.99682617 C6.0333252,4.36045799 5.97800507,4.6650205 5.82800293,4.95593262 L7.03808594,6.62573242 C7.30058969,6.15300855 7.9675293,4.74377441 7.71936035,3.12023926 C7.47891346,1.54722222 5.69517245,0.110351563 4.04516602,0.110351563 Z M3.99536133,6.027771 C2.7578608,6.027771 1.96728516,5.2178181 1.96728516,4.01782227 C1.96728516,3.65418212 2.02150665,3.38142725 2.17150879,3.09051514 L1.0012207,1.45446777 C0.73871695,1.92719164 -0.285630157,3.32462747 0.332885742,5.3302002 C0.80847168,6.87231445 2.34474454,7.98608398 3.99475098,7.98608398 L4.00000858,8 L6.07507324,7.98608398 L4.00000858,5.09091213 L3.99536133,6.027771 Z" id="形状"></path>
        </g>
    </g>
</svg>