<?xml version="1.0" encoding="UTF-8"?>
<svg width="40px" height="40px" viewBox="0 0 40 40" version="1.1" xmlns="http://www.w3.org/2000/svg" xmlns:xlink="http://www.w3.org/1999/xlink">
    <!-- Generator: Sketch 54.1 (76490) - https://sketchapp.com -->
    <title>日期</title>
    <desc>Created with Sketch.</desc>
    <g id="日期" stroke="none" stroke-width="1" fill="none" fill-rule="evenodd">
        <g fill="#000000">
            <rect id="Rectangle" opacity="0" x="0" y="0" width="40" height="40"></rect>
            <path d="M15.85,17.4 L23.06,17.4 C23.2809139,17.4 23.46,17.5790861 23.46,17.8 L23.46,19.1211837 C23.46,19.1732275 23.4498438,19.2247713 23.4301008,19.272925 L19.1337861,29.7517413 C19.0722134,29.9019185 18.9259948,30 18.7636853,30 L17.4504082,30 C17.2294943,30 17.0504082,29.8209139 17.0504082,29.6 C17.0504082,29.5479366 17.0605721,29.4963739 17.0803295,29.448205 L21.21,19.38 L15.85,19.38 C15.6290861,19.38 15.45,19.2009139 15.45,18.98 L15.45,17.8 C15.45,17.5790861 15.6290861,17.4 15.85,17.4 Z" id="7" fill-rule="nonzero"></path>
        </g>
        <path d="M6,7 L6,36 L30.4719128,36 L34,30.7450075 L34,7 L6,7 Z" id="矩形" stroke="#000000" stroke-width="2"></path>
        <rect id="矩形" fill="#000000" x="11" y="4" width="2" height="6" rx="0.2"></rect>
        <rect id="矩形" fill="#000000" x="27" y="4" width="2" height="6" rx="0.2"></rect>
        <rect id="矩形" fill="#000000" x="6" y="12" width="28" height="2"></rect>
        <path d="M35,30 C34.4501083,30.9748537 33.6598054,31.9776376 32.6290913,33.0083517 C31.5983772,34.0390657 30.0553468,35.3696152 28,37 L28,30.4 C28,30.1790861 28.1790861,30 28.4,30 L35,30 Z" id="路径-7" fill="#000000"></path>
    </g>
</svg>