<?xml version="1.0" encoding="UTF-8"?>
<svg width="30px" height="30px" viewBox="0 0 30 30" version="1.1" xmlns="http://www.w3.org/2000/svg" xmlns:xlink="http://www.w3.org/1999/xlink">
    <!-- Generator: Sketch 54.1 (76490) - https://sketchapp.com -->
    <title>ic_地址复制</title>
    <desc>Created with Sketch.</desc>
    <g id="ic_地址复制" stroke="none" stroke-width="1" fill="none" fill-rule="evenodd">
        <g id="编组" transform="translate(6.000000, 5.000000)" stroke="#000000" stroke-width="1.5">
            <path d="M9.00147916,14.9346166 C12.5161433,11.3427322 14.25,8.40943864 14.25,6.20555691 C14.25,2.9194099 12.0493442,0.75 9,0.75 C5.96401624,0.75 3.75,2.94141707 3.75,6.20555691 C3.75,8.38787377 5.48518307,11.322029 9.00147916,14.9346166 Z" id="椭圆形"></path>
            <path d="M4.09047752,12.5661328 C1.62782042,13.1906455 0,14.2713954 0,15.5 C0,17.4329966 4.02943725,19 9,19 L9,19 C13.9705627,19 18,17.4329966 18,15.5 C18,14.2906286 16.422746,13.2245189 14.0245606,12.5957964" id="路径"></path>
            <circle id="椭圆形" cx="9" cy="6" r="2.25"></circle>
        </g>
    </g>
</svg>