<?xml version="1.0" encoding="utf-8"?>
<!-- Generator: Adobe Illustrator 23.0.3, SVG Export Plug-In . SVG Version: 6.00 Build 0)  -->
<svg version="1.1" id="图层_1" xmlns="http://www.w3.org/2000/svg" xmlns:xlink="http://www.w3.org/1999/xlink" x="0px" y="0px"
	 viewBox="0 0 30 30" style="enable-background:new 0 0 30 30;" xml:space="preserve">
<style type="text/css">
	.st0{fill-rule:evenodd;clip-rule:evenodd;}
</style>
<title>ic_contact_chat support复制</title>
<desc>Created with Sketch.</desc>
<g id="路径-11">
	<path d="M15,23.8v-1.5c3.6,0,5.6-1.4,6.3-4.3l1.5,0.4C21.8,21.9,19.2,23.8,15,23.8z"/>
</g>
<g id="矩形">
	<path d="M9.3,19H6.8c-1,0-1.8-0.7-1.8-1.8v-3.5c0-1,0.7-1.8,1.8-1.8h2.5c1,0,1.8,0.7,1.8,1.8v3.5C11,18.3,10.3,19,9.3,19z
		 M6.8,13.5c-0.2,0-0.2,0.1-0.2,0.2v3.5c0,0.2,0.1,0.2,0.2,0.2h2.5c0.2,0,0.2-0.1,0.2-0.2v-3.5c0-0.2-0.1-0.2-0.2-0.2H6.8z"/>
</g>
<g>
	<path d="M23.3,19h-2.5c-1,0-1.8-0.7-1.8-1.8v-3.5c0-1,0.7-1.8,1.8-1.8h2.5c1,0,1.8,0.7,1.8,1.8v3.5C25,18.3,24.3,19,23.3,19z
		 M20.8,13.5c-0.2,0-0.2,0.1-0.2,0.2v3.5c0,0.2,0.1,0.2,0.2,0.2h2.5c0.2,0,0.2-0.1,0.2-0.2v-3.5c0-0.2-0.1-0.2-0.2-0.2H20.8z"/>
</g>
<g id="形状_1_">
	<path d="M8.5,12.3l-1.5-0.1C7.4,8,10.6,5,14.5,5h1c3.9,0,7.1,3.1,7.4,7.2l-1.5,0.1c-0.3-3.3-2.8-5.8-6-5.8h-1
		C11.4,6.5,8.8,8.9,8.5,12.3z"/>
</g>
<g>
	<path class="st0" d="M14,21L14,21c1.1,0,2,0.9,2,2l0,0c0,1.1-0.9,2-2,2l0,0c-1.1,0-2-0.9-2-2l0,0C12,21.9,12.9,21,14,21z"/>
</g>
</svg>
