<?xml version="1.0" encoding="UTF-8"?>
<svg width="40px" height="40px" viewBox="0 0 40 40" version="1.1" xmlns="http://www.w3.org/2000/svg" xmlns:xlink="http://www.w3.org/1999/xlink">
    <!-- Generator: Sketch 54.1 (76490) - https://sketchapp.com -->
    <title>正品</title>
    <desc>Created with Sketch.</desc>
    <g id="正品" stroke="none" stroke-width="1" fill="none" fill-rule="evenodd">
        <polyline id="路径-10" stroke="#000000" stroke-width="2" transform="translate(29.538753, 30.245925) scale(-1, 1) rotate(-330.000000) translate(-29.538753, -30.245925) " points="26.6497656 26.9135701 26.0792146 33.5782803 29.153576 32.0512114 32.0792146 33.5782803 32.9982912 27.0926444"></polyline>
        <polyline id="路径-10" stroke="#000000" stroke-width="2" transform="translate(9.628296, 30.135356) rotate(-330.000000) translate(-9.628296, -30.135356) " points="7.12234329 26.8566866 6.25342604 33.546502 9.32778744 32.0194331 12.253426 33.546502 13.0031658 26.7242105"></polyline>
        <path d="M17.2363055,29.6998468 L15.0179689,30.1824796 C14.1210418,30.3776197 13.2064263,29.9371641 12.799768,29.1142504 L11.7939953,27.0789683 C10.9682981,25.4080872 9.79297833,23.9342828 8.34772465,22.7574816 L6.58727683,21.3240328 C5.87548525,20.7444548 5.64959387,19.75476 6.03942647,18.9237435 L7.00358503,16.8684211 C7.79511869,15.1810878 8.21458548,13.3432837 8.23354478,11.4796153 L8.25663891,9.20950111 C8.26597642,8.29163909 8.89891,7.49796549 9.79168151,7.28461858 L11.9997403,6.75695553 C13.8124638,6.32376635 15.5108501,5.50586658 16.9797457,4.35871134 L18.7689914,2.96137398 C19.4924267,2.39639673 20.5075733,2.39639673 21.2310086,2.96137398 L23.0202543,4.35871134 C24.4891499,5.50586658 26.1875362,6.32376635 28.0002597,6.75695553 L30.2083185,7.28461858 C31.10109,7.49796549 31.7340236,8.29163909 31.7433611,9.20950111 L31.7664552,11.4796153 C31.7854145,13.3432837 32.2048813,15.1810878 32.996415,16.8684211 L33.9605735,18.9237435 C34.3504061,19.75476 34.1245148,20.7444548 33.4127232,21.3240328 L31.6522753,22.7574816 C30.2070217,23.9342828 29.0317019,25.4080872 28.2060047,27.0789683 L27.200232,29.1142504 C26.7935737,29.9371641 25.8789582,30.3776197 24.9820311,30.1824796 L22.7636945,29.6998468 C20.9425333,29.3036255 19.0574667,29.3036255 17.2363055,29.6998468 Z" id="星形" stroke="#000000" stroke-width="2" transform="translate(20.000000, 17.000000) scale(1, -1) translate(-20.000000, -17.000000) "></path>
        <text id="正" stroke="#000000" font-family="PingFangSC-Semibold, PingFang SC" font-size="14" font-weight="500" fill="#000000">
            <tspan x="13" y="22">正</tspan>
        </text>
    </g>
</svg>