<?xml version="1.0" encoding="utf-8"?>
<!-- Generator: Adobe Illustrator 23.0.3, SVG Export Plug-In . SVG Version: 6.00 Build 0)  -->
<svg version="1.1" id="图层_1" xmlns="http://www.w3.org/2000/svg" xmlns:xlink="http://www.w3.org/1999/xlink" x="0px" y="0px"
	 viewBox="0 0 30 30" style="enable-background:new 0 0 30 30;" xml:space="preserve">
<style type="text/css">
	.st0{fill:none;stroke:#FFFFFF;stroke-width:1.5;}
	.st1{fill-rule:evenodd;clip-rule:evenodd;fill:#FFFFFF;}
</style>
<title>ic_contact_chat support复制</title>
<desc>Created with Sketch.</desc>
<g>
	<path id="路径-11" class="st0" d="M22,18.1c-0.8,3.3-3.1,4.9-7,4.9"/>
	<path id="矩形" class="st0" d="M6.8,12.8h2.5c0.6,0,1,0.4,1,1v3.5c0,0.6-0.4,1-1,1H6.8c-0.6,0-1-0.4-1-1v-3.5
		C5.8,13.2,6.2,12.8,6.8,12.8z"/>
	<path class="st0" d="M20.8,12.8h2.5c0.6,0,1,0.4,1,1v3.5c0,0.6-0.4,1-1,1h-2.5c-0.6,0-1-0.4-1-1v-3.5
		C19.8,13.2,20.2,12.8,20.8,12.8z"/>
	<path id="形状_1_" class="st0" d="M22.2,12.2c-0.3-3.7-3.2-6.5-6.7-6.5h-1c-3.5,0-6.4,2.8-6.7,6.5"/>
	<path class="st1" d="M14,21L14,21c1.1,0,2,0.9,2,2l0,0c0,1.1-0.9,2-2,2l0,0c-1.1,0-2-0.9-2-2l0,0C12,21.9,12.9,21,14,21z"/>
</g>
</svg>
