<?xml version="1.0" encoding="UTF-8"?>
<svg width="30px" height="30px" viewBox="0 0 30 30" version="1.1" xmlns="http://www.w3.org/2000/svg" xmlns:xlink="http://www.w3.org/1999/xlink">
    <!-- Generator: Sketch 55.1 (78136) - https://sketchapp.com -->
    <title>ic_优惠券</title>
    <desc>Created with Sketch.</desc>
    <g id="ic_优惠券" stroke="none" stroke-width="1" fill="none" fill-rule="evenodd">
        <g id="优惠券" transform="translate(5.000000, 7.000000)" fill="#000000" fill-rule="nonzero">
            <g id="编组">
                <path d="M20,16 L5.30434783,16 L5.13043478,15.6 C4.95652174,15.2 4.69565217,15 4.34782609,15 C4,15 3.73913043,15.2 3.56521739,15.6 L3.39130435,16 L0,16 L0,0 L3.39130435,0 L3.56521739,0.4 C3.73913043,0.8 4,1 4.34782609,1 C4.69565217,1 4.95652174,0.8 5.13043478,0.4 L5.30434783,0 L20,0 L20,16 Z M6.08876465,14.5979143 L18.5587646,14.5979143 L18.5587646,1.39791434 L6.08876465,1.39791434 C5.65876465,2.00714511 5.05676465,2.41329896 4.36876465,2.41329896 C3.68076465,2.41329896 3.07876465,2.00714511 2.64876465,1.39791434 L1.35876465,1.39791434 L1.35876465,14.5979143 L2.64876465,14.5979143 C3.07876465,13.9886836 3.68076465,13.5825297 4.36876465,13.5825297 C5.05676465,13.5825297 5.65876465,13.9886836 6.08876465,14.5979143 Z" id="形状"></path>
            </g>
            <g id="矩形" transform="translate(3.478261, 4.500000)">
                <path d="M0.782608696,0 L0.782608696,0 C1.13043478,0 1.47826087,0.2625 1.47826087,0.7 L1.47826087,2.0125 C1.47826087,2.3625 1.2173913,2.625 0.782608696,2.625 L0.782608696,2.625 C0.434782609,2.625 0.173913043,2.3625 0.173913043,2.0125 L0.173913043,0.7 C0.173913043,0.2625 0.434782609,0 0.782608696,0 Z" id="路径"></path>
            </g>
            <g id="编组" transform="translate(3.478261, 8.875000)">
                <path d="M0.782608696,0 L0.782608696,0 C1.13043478,0 1.47826087,0.2625 1.47826087,0.7 L1.47826087,2.0125 C1.47826087,2.3625 1.2173913,2.7125 0.782608696,2.7125 L0.782608696,2.7125 C0.434782609,2.7125 0.0869565217,2.45 0.0869565217,2.0125 L0.0869565217,0.7 C0.173913043,0.2625 0.434782609,0 0.782608696,0 Z" id="路径"></path>
            </g>
            <g id="编组" transform="translate(7.826087, 3.625000)">
                <path d="M0,2.1 C0,1.575 0.173913043,1.1375 0.608695652,0.7875 C0.956521739,0.4375 1.47826087,0.2625 1.91304348,0.2625 C2.43478261,0.2625 2.86956522,0.4375 3.2173913,0.7875 C3.56521739,1.1375 3.73913043,1.575 3.73913043,2.1 C3.73913043,2.625 3.56521739,3.0625 3.2173913,3.4125 C2.86956522,3.7625 2.43478261,3.9375 1.82608696,3.9375 C1.30434783,3.9375 0.869565217,3.7625 0.52173913,3.4125 C0.173913043,3.0625 0,2.625 0,2.1 Z M1.04347826,2.1 C1.04347826,2.3625 1.13043478,2.5375 1.30434783,2.7125 C1.47826087,2.8875 1.65217391,2.975 1.91304348,2.975 C2.17391304,2.975 2.34782609,2.8875 2.52173913,2.7125 C2.69565217,2.5375 2.7826087,2.3625 2.7826087,2.1 C2.7826087,1.8375 2.69565217,1.6625 2.52173913,1.4875 C2.34782609,1.3125 2.17391304,1.225 1.91304348,1.225 C1.65217391,1.225 1.47826087,1.3125 1.30434783,1.4875 C1.13043478,1.6625 1.04347826,1.8375 1.04347826,2.1 Z M6.26086957,0.175 L7.04347826,0.7 L2.52173913,8.575 L1.73913043,8.05 L6.26086957,0.175 Z M4.95652174,6.3875 C4.95652174,5.8625 5.13043478,5.425 5.56521739,5.075 C5.91304348,4.725 6.43478261,4.55 6.86956522,4.55 C7.39130435,4.55 7.82608696,4.725 8.17391304,5.075 C8.52173913,5.425 8.69565217,5.8625 8.69565217,6.3875 C8.69565217,6.9125 8.52173913,7.35 8.08695652,7.7 C7.73913043,8.05 7.30434783,8.225 6.69565217,8.225 C6.17391304,8.225 5.73913043,8.05 5.39130435,7.7 C5.13043478,7.35 4.95652174,6.9125 4.95652174,6.3875 Z M6,6.475 C6,6.7375 6.08695652,6.9125 6.26086957,7.0875 C6.43478261,7.2625 6.60869565,7.35 6.86956522,7.35 C7.13043478,7.35 7.30434783,7.2625 7.47826087,7.0875 C7.65217391,6.9125 7.73913043,6.7375 7.73913043,6.475 C7.73913043,6.2125 7.65217391,6.0375 7.47826087,5.8625 C7.30434783,5.6875 7.13043478,5.6 6.86956522,5.6 C6.60869565,5.6 6.43478261,5.6875 6.26086957,5.8625 C6.08695652,5.95 6,6.2125 6,6.475 Z" id="形状"></path>
            </g>
        </g>
    </g>
</svg>