<?xml version="1.0" encoding="UTF-8"?>
<svg width="30px" height="30px" viewBox="0 0 30 30" version="1.1" xmlns="http://www.w3.org/2000/svg" xmlns:xlink="http://www.w3.org/1999/xlink">
    <!-- Generator: Sketch 52.5 (67469) - http://www.bohemiancoding.com/sketch -->
    <title>微博</title>
    <desc>Created with Sketch.</desc>
    <g id="微博" stroke="none" stroke-width="1" fill="none" fill-rule="evenodd">
        <g>
            <g transform="translate(3.000000, 3.000000)">
                <rect id="Rectangle" fill="#000000" opacity="0" x="0" y="0" width="24" height="24"></rect>
                <path d="M10.2505041,6.00895686 C12.0080785,6.15636935 11.7151495,8.14526801 11.7293234,8.16398705 C11.126929,9.69660896 12.3813269,8.99230485 12.3813269,8.99230485 C14.2877282,8.03997337 15.8586785,8.41201442 15.8586785,8.41201442 C17.6209776,9.16311615 16.7185671,10.9858833 16.7185671,10.9858833 C16.3642174,11.6082916 16.9925975,11.6901874 16.9925975,11.6901874 C19.028927,12.1698629 19.4659583,13.8101194 19.4659583,13.8101194 C19.9927582,17.7691976 14.2310322,19.6574814 14.2310322,19.6574814 C8.55198791,21.3211367 4.53130011,18.9531773 4.53130011,18.9531773 C-0.285493318,16.4261061 2.0815626,12.2119808 2.0815626,12.2119808 C5.30850709,7.00340619 8.76223539,5.88494318 10.2505041,6.00895686 Z M15.9886067,14.5565413 C15.9886067,12.4015111 13.5790288,10.9273863 10.1347498,10.9273863 C6.68102155,10.9273863 3.49659902,13.0052004 3.49659902,15.1602306 C3.49659902,17.3339798 5.70301641,19.0795309 9.74260286,19.0795309 C13.1797948,19.0795309 15.9886067,16.7115715 15.9886067,14.5565413 Z" id="Combined-Shape" fill="#E01E27" fill-rule="nonzero"></path>
                <path d="M12.7428228,15.748733 C12.6387921,17.3962001 11.2621995,18.6789234 9.43803288,18.745018 C7.2291945,18.830696 5.77276438,17.8099029 6.02921221,15.790348 C6.22517706,14.1428809 7.63805944,12.75 9.43803288,12.75 C11.2621995,12.7524479 12.8710467,13.7487617 12.7428228,15.748733 Z M10.5775322,15.3081028 C10.5775322,15.0657562 10.3815673,14.8748165 10.1493127,14.8748165 C9.91705807,14.8748165 9.72109322,15.0731001 9.72109322,15.3081028 C9.72109322,15.5431055 9.91705807,15.7413891 10.1493127,15.7413891 C10.3815673,15.7658686 10.5775322,15.5749288 10.5775322,15.3081028 Z M9.42109764,16.3558234 C9.42109764,15.7683165 8.88158948,15.2909672 8.28159833,15.3766453 C7.68160718,15.4623234 7.10097059,15.9225371 7.10097059,16.5027001 C7.10097059,17.090207 7.59693101,17.5234933 8.21385739,17.5234933 C8.83804173,17.5504207 9.42109764,16.9433302 9.42109764,16.3558234 Z" id="Combined-Shape" fill="#000000" fill-rule="nonzero"></path>
                <path d="M15.9948626,5.67904804 C15.5703006,5.84694072 15.088979,5.50875691 15.0276786,5.04105589 C14.9073482,4.57335488 15.1934167,4.1248416 15.6134379,3.97853513 C16.1764934,3.76507159 16.8417162,3.72189918 17.4456385,3.76507159 C19.6002338,3.95215199 21.695799,5.48237377 22.2997214,7.73933098 C22.6402792,8.99372908 22.5426526,10.3968321 22.0363568,11.5672839 C21.8569964,12.0157972 21.2712371,12.102142 20.9102459,11.8886784 C20.4856839,11.634441 20.4221131,11.1235675 20.6060143,10.6990389 C20.4402762,11.0827936 20.5833104,10.766196 20.6241774,10.6390773 C20.6877482,10.4208168 20.7445078,10.2145487 20.7853747,9.97710045 C20.8035378,9.91713878 20.8444047,9.5765565 20.8035378,9.91713878 C20.8035378,9.83319244 20.8217009,9.74684764 20.8217009,9.6629013 C20.8398639,9.49261016 20.8398639,9.29833436 20.8398639,9.12804322 C20.8398639,9.00092448 20.8398639,8.89059501 20.8217009,8.78746094 C20.8035378,8.72749927 20.7808339,8.5524112 20.8217009,8.83063334 C20.8217009,8.78746094 20.8035378,8.72749927 20.8035378,8.68432687 C20.7626709,8.4660664 20.7218039,8.25979826 20.6650443,8.06552245 C20.6264478,7.97917765 20.6037439,7.91202058 20.5855808,7.85205891 C20.5288212,7.65778311 20.6650443,8.04633472 20.5855808,7.85205891 C20.5447139,7.74412791 20.503847,7.63379844 20.4470874,7.53066437 C20.3835166,7.44671803 20.3199458,7.33638856 20.2631862,7.23325449 C20.2223193,7.19008209 20.2064266,7.13012042 20.1655596,7.08694802 C20.3085939,7.28122383 20.1655596,7.08694802 20.1473965,7.06776029 C19.9407915,6.83031208 19.7455384,6.62404394 19.5207703,6.42976813 C19.4980665,6.40578347 19.3187061,6.259477 19.4799034,6.38659573 C19.4163326,6.34342333 19.3754657,6.3026494 19.3187061,6.259477 C19.2210795,6.19231993 19.093938,6.10597512 18.9963114,6.04601346 C18.8578179,5.95966865 18.7374875,5.89251158 18.6171571,5.83254992 C18.580831,5.83254992 18.3969298,5.74860358 18.5989941,5.83254992 C18.5354233,5.81576065 18.4945564,5.79177598 18.4377967,5.77258825 C18.2357325,5.68144651 18.0359386,5.62148484 17.8338743,5.57831244 C17.7521405,5.55432777 17.6953809,5.55432777 17.6318101,5.53514004 C17.5705097,5.51595231 17.3866085,5.49196764 17.6499732,5.53514004 C17.5523466,5.53514004 17.466072,5.51595231 17.3684454,5.51595231 L16.8621496,5.51595231 C16.7599823,5.51595231 16.6782484,5.53514004 16.598785,5.53514004 C16.5420253,5.55432777 16.2536865,5.57831244 16.598785,5.53514004 C16.4784546,5.55192931 16.3740169,5.57591397 16.2763903,5.59510171 C16.1787638,5.61908638 16.0924891,5.63587564 15.9948626,5.67904804 Z M16.4148838,8.09910099 C15.7542018,8.29337679 15.4499702,7.18768363 16.0607038,6.95263388 C16.9030165,6.69599794 17.9156082,6.90946148 18.5581271,7.5282659 C19.2801095,8.18304732 19.5048776,9.31032669 19.2233499,10.2697134 C19.1438864,10.5671233 18.8623587,10.7542037 18.5581271,10.6702573 C18.2765994,10.6054987 18.0995094,10.2649165 18.1789729,9.96750658 C18.2016767,9.90034951 18.2016767,9.83319244 18.2198398,9.77323077 C18.2198398,9.75404304 18.2380029,9.57895497 18.2198398,9.77323077 C18.2380029,9.75404304 18.2380029,9.7132691 18.2380029,9.6700967 L18.2380029,9.22158342 C18.2380029,9.07527695 18.2788698,9.34870216 18.2380029,9.17841102 C18.215299,9.07048002 18.1994063,8.96015055 18.1585394,8.85701648 C18.1403763,8.79465634 18.1403763,8.79465634 18.1585394,8.83782874 C18.1585394,8.79465634 18.1403763,8.77786707 18.1176725,8.73469467 C18.0949686,8.69152227 18.0790759,8.6315606 18.038209,8.5883882 C18.1017798,8.65074834 17.9814494,8.50444187 17.9814494,8.50444187 C17.9224194,8.46126946 17.8838228,8.42049553 17.8429559,8.37732313 C17.5795912,8.12068719 17.2186,8.03674085 16.8962054,8.03674085 C16.8167419,8.03674085 16.7123042,8.05592859 16.6328407,8.05592859 C16.4784546,8.05592859 16.7599823,8.01275618 16.5760811,8.05592859 C16.5125103,8.07991325 16.4716434,8.07991325 16.4148838,8.09910099 Z" id="Combined-Shape" fill="#F49603" fill-rule="nonzero"></path>
            </g>
        </g>
    </g>
</svg>