<?xml version="1.0" encoding="UTF-8"?>
<svg width="100px" height="100px" viewBox="0 0 100 100" version="1.1" xmlns="http://www.w3.org/2000/svg" xmlns:xlink="http://www.w3.org/1999/xlink">
    <!-- Generator: Sketch 55.1 (78136) - https://sketchapp.com -->
    <title>icon/empty/Cart</title>
    <desc>Created with Sketch.</desc>
    <defs>
        <linearGradient x1="50%" y1="0%" x2="50%" y2="100%" id="linearGradient-1">
            <stop stop-color="#FDFDFD" stop-opacity="0.300890516" offset="0%"></stop>
            <stop stop-color="#F9F9F9" offset="100%"></stop>
        </linearGradient>
    </defs>
    <g id="icon/empty/Cart" stroke="none" stroke-width="1" fill="none" fill-rule="evenodd">
        <path d="M78.2646283,89.653319 C85.514747,82.482158 90,72.5693873 90,61.6190076 C90,39.7380339 72.09139,22 50,22 C27.90861,22 10,39.7380339 10,61.6190076 C10,72.7469527 14.6318932,82.8033654 22.0902373,90" id="形状" fill="url(#linearGradient-1)"></path>
        <g id="编组" transform="translate(11.000000, 9.000000)" fill="#E7E7E7">
            <path d="M57.9999652,28 C55.7921922,28 54,26.2077922 54,24 C54,21.7922078 55.7921922,20 57.9999652,20 C60.2077382,20 62,21.7922078 62,24 C62.0129173,26.2077922 60.2077382,28 57.9999652,28 L57.9999652,28 Z" id="Shape"></path>
            <path d="M0,35 C0,37.209139 1.790861,39 4,39 C6.209139,39 8,37.209139 8,35 C8,32.790861 6.209139,31 4,31 C1.790861,31 0,32.790861 0,35 Z" id="Path"></path>
            <path d="M26,2 C26,3.1045695 26.8954305,4 28,4 C29.1045695,4 30,3.1045695 30,2 C30,0.8954305 29.1045695,0 28,0 C26.8954305,0 26,0.8954305 26,2 L26,2 Z" id="Path"></path>
            <path d="M69,17.5 C69,18.8807119 70.1192881,20 71.5,20 C72.8807119,20 74,18.8807119 74,17.5 C74,16.1192881 72.8807119,15 71.5,15 C70.1192881,15 69,16.1192881 69,17.5 L69,17.5 Z" id="Path"></path>
            <path d="M74,60 C74,61.1045695 74.8954305,62 76,62 C77.1045695,62 78,61.1045695 78,60 C78,58.8954305 77.1045695,58 76,58 C74.8954305,58 74,58.8954305 74,60 L74,60 Z" id="Path"></path>
        </g>
        <g id="编组-2" transform="translate(24.000000, 49.000000)" stroke="#CCCCCC" stroke-width="1.5">
            <path d="M0,0 L3.85241907,0 C4.26292648,3.56133133e-17 4.62004047,0.281108355 4.7164475,0.680134699 L11.6896596,29.5420875 C11.7860667,29.9411139 12.1431806,30.2222222 12.5536881,30.2222222 L42.552508,30.2222222 C42.9790801,30.2222222 43.3455092,29.9191971 43.4255921,29.5002096 L47.7982071,6.62301662 C47.8903703,6.14082561 47.5741903,5.67521951 47.0919993,5.58305629 C47.0369959,5.57254326 46.9811221,5.56725146 46.9251231,5.56725146 L11.5645433,5.56725146 C11.0736235,5.56725146 10.6756544,5.96522057 10.6756544,6.45614035 C10.6756544,6.52144895 10.6828519,6.58655865 10.6971165,6.65029039 L15.86961,29.7600429" id="直线-7" stroke-linecap="square"></path>
            <path d="M46.0130094,13.5833333 L19.6760921,13.5833333" id="直线" stroke-linecap="square"></path>
            <path d="M43.9622829,20.6944444 L21.6387535,20.6944444" id="直线" stroke-linecap="square"></path>
            <circle id="椭圆形" fill="#F9F9F9" cx="13.3333333" cy="36.4444444" r="2.80555556"></circle>
            <circle id="椭圆形" fill="#F9F9F9" cx="40" cy="36.4444444" r="2.80555556"></circle>
        </g>
        <path d="M16,89.6877453 L92.2251523,89.6877453" id="Line-4" stroke="#CCCCCC" stroke-width="1.5" stroke-linecap="square" stroke-linejoin="round"></path>
        <path d="M7.35569766,89.6877453 L11,89.6877453" id="Line-4" stroke="#CCCCCC" stroke-width="1.5" stroke-linecap="square" stroke-linejoin="round"></path>
    </g>
</svg>