<?xml version="1.0" encoding="UTF-8"?>
<svg width="30px" height="30px" viewBox="0 0 30 30" version="1.1" xmlns="http://www.w3.org/2000/svg" xmlns:xlink="http://www.w3.org/1999/xlink">
    <!-- Generator: Sketch 52.5 (67469) - http://www.bohemiancoding.com/sketch -->
    <title>微信</title>
    <desc>Created with Sketch.</desc>
    <g id="微信" stroke="none" stroke-width="1" fill="none" fill-rule="evenodd">
        <g>
            <g transform="translate(3.000000, 3.000000)">
                <rect id="Rectangle" fill="#000000" opacity="0" x="0" y="0" width="24" height="24"></rect>
                <path d="M23.690625,14.71875 C23.690625,11.409375 20.3789063,8.7140625 16.6617188,8.7140625 C12.7242188,8.7140625 9.6234375,11.4117188 9.6234375,14.71875 C9.6234375,18.0328125 12.7242188,20.7234375 16.6617188,20.7234375 C17.4867188,20.7234375 18.31875,20.5148438 19.1460938,20.3085938 L21.4148438,21.5507813 L20.7914063,19.4835938 C22.453125,18.2367188 23.690625,16.584375 23.690625,14.71875 Z M14.484375,13.8 C13.9664063,13.8 13.546875,13.3804688 13.546875,12.8625 C13.546875,12.3445312 13.9664063,11.925 14.484375,11.925 C15.0023438,11.925 15.421875,12.3445312 15.421875,12.8625 C15.421875,13.378125 15.0023438,13.8 14.484375,13.8 Z M19.0382813,13.7929688 C18.5203125,13.7929688 18.1007813,13.3734375 18.1007813,12.8554688 C18.1007813,12.3375 18.5203125,11.9179688 19.0382813,11.9179688 C19.55625,11.9179688 19.9757813,12.3375 19.9757813,12.8554688 C19.9757813,13.3734375 19.55625,13.7929688 19.0382813,13.7929688 Z" id="Shape" fill="#00C800" fill-rule="nonzero"></path>
                <path d="M8.58515625,2.50546875 C4.0359375,2.50546875 0.309375,5.60625 0.309375,9.54375 C0.309375,11.8171875 1.54921875,13.6828125 3.62109375,15.13125 L2.79375,17.6203125 L5.6859375,16.1695313 C6.721875,16.3734375 7.5515625,16.584375 8.58515625,16.584375 C8.8453125,16.584375 9.103125,16.5726563 9.35859375,16.5515625 C9.196875,15.9984375 9.103125,15.4195313 9.103125,14.8171875 C9.103125,11.2007813 12.2085938,8.26640625 16.1390625,8.26640625 C16.4085938,8.26640625 16.6734375,8.28515625 16.9359375,8.315625 C16.21875,4.9828125 12.6539063,2.50546875 8.58515625,2.50546875 Z M5.80546875,8.184375 C5.184375,8.184375 4.68046875,7.68046875 4.68046875,7.059375 C4.68046875,6.43828125 5.184375,5.934375 5.80546875,5.934375 C6.4265625,5.934375 6.93046875,6.43828125 6.93046875,7.059375 C6.93046875,7.68046875 6.4265625,8.184375 5.80546875,8.184375 Z M11.5851562,8.184375 C10.9640625,8.184375 10.4601562,7.68046875 10.4601562,7.059375 C10.4601562,6.43828125 10.9640625,5.934375 11.5851562,5.934375 C12.20625,5.934375 12.7101562,6.43828125 12.7101562,7.059375 C12.7101562,7.68046875 12.20625,8.184375 11.5851562,8.184375 Z" id="Shape" fill="#00C800" fill-rule="nonzero"></path>
            </g>
        </g>
    </g>
</svg>