<?xml version="1.0" encoding="UTF-8"?>
<svg width="24px" height="24px" viewBox="0 0 24 24" version="1.1" xmlns="http://www.w3.org/2000/svg" xmlns:xlink="http://www.w3.org/1999/xlink">
    <!-- Generator: Sketch 58 (84663) - https://sketch.com -->
    <title>icon/ic_huabei_black</title>
    <desc>Created with Sketch.</desc>
    <g id="icon/ic_huabei_black" stroke="none" stroke-width="1" fill="none" fill-rule="evenodd">
        <g id="huabei" transform="translate(1.000000, 1.000000)" fill="#000000" fill-rule="nonzero">
            <path d="M11.6401112,5.6002967 C12.6765592,5.8636564 13.6715292,5.3789146 13.8634269,4.51637407 C14.0553247,3.65483298 13.3706894,2.74281878 12.335241,2.4784596 C11.2977936,2.21460015 10.3033233,2.69984167 10.1119253,3.56238222 C9.92002747,4.42442303 10.6041631,5.33643723 11.6401112,5.6002967 Z M21.3317988,7.03073474 C21.1179127,6.41506268 20.8590506,5.83087387 20.5607095,5.27866801 C19.703666,3.6940121 18.5182974,2.38670847 17.1325356,1.41272728 C16.8851674,1.24081885 16.4144181,0.969463385 16.3999258,0.961467664 C16.3964277,0.959468711 16.3929296,0.957469781 16.3894314,0.955970572 C13.8307943,-0.464272908 12.5199925,-0.151439541 12.5409814,0.912993482 C12.5574726,1.70856969 13.2670946,1.90596456 13.8962595,2.21480004 C16.0351201,3.26324156 17.1895052,4.87488309 16.602318,6.18318621 C16.063605,7.3835468 14.0611716,7.80682135 11.987776,7.04172888 C9.86490683,6.25814627 7.08188928,4.39263997 6.70758864,6.49701902 C6.39125715,8.27507191 9.05084046,8.33304104 11.8218644,11.240992 C13.0092319,12.4868284 13.315069,14.6546737 12.6209388,16.3972455 C11.1272344,19.0273445 6.84801386,18.4121722 4.90704773,16.2653157 C2.67823494,13.7991294 2.96858029,11.2294982 3.08351907,10.5968352 C3.35387505,9.32251398 3.84311445,8.28156845 4.22241241,7.65140413 C4.60720743,6.95777361 4.80460229,6.49701902 4.79810576,5.93981583 C4.7871116,5.04029498 4.17293877,4.44861015 3.31989314,4.39663783 C2.30293486,4.33467086 1.54983602,4.98932213 1.11007027,5.95630704 C0.0651268689,8.22060094 -0.278689985,10.8377069 0.261022526,13.4178325 C0.269018269,13.465807 0.276014526,13.5137814 0.285509478,13.5617558 C0.334983124,13.8146211 0.398449328,14.0619894 0.471910183,14.3023614 L0.470410996,14.3013619 C0.470410996,14.3013619 0.57335615,14.7131425 0.818725454,15.2733441 C0.898682866,15.4772355 0.978140533,15.6811269 1.06659341,15.878022 C1.06459448,15.8755234 1.06209581,15.8730247 1.05959715,15.870526 C1.05959715,15.870526 1.06659341,15.8830194 1.07658808,15.9005101 C3.47581011,21.211681 9.38116452,23.8362829 14.7578005,21.787874 C20.4632614,19.6145317 23.4061938,13.0075511 21.3317988,7.03073474 Z" id="形状"></path>
        </g>
    </g>
</svg>